<?xml version="1.0" standalone="no"?>
<!DOCTYPE svg PUBLIC "-//W3C//DTD SVG 20010904//EN"
 "http://www.w3.org/TR/2001/REC-SVG-20010904/DTD/svg10.dtd">
<svg version="1.0" xmlns="http://www.w3.org/2000/svg"
 width="280.000000pt" height="280.000000pt" viewBox="0 0 280.000000 280.000000"
 preserveAspectRatio="xMidYMid meet">
<metadata>
Created by potrace 1.11, written by Peter Selinger 2001-2013
</metadata>
<g transform="translate(0.000000,280.000000) scale(0.100000,-0.100000)"
fill="#000000" stroke="none">
<path d="M2039 2685 c-19 -7 -55 -23 -80 -35 -170 -86 -226 -201 -156 -325 23
-40 23 -40 91 -43 133 -6 197 66 204 226 4 88 -5 192 -16 191 -4 0 -23 -6 -43
-14z"/>
<path d="M735 2638 c-56 -188 -6 -342 122 -377 67 -19 96 -14 130 22 54 56 68
127 37 193 -24 50 -120 134 -202 177 l-71 38 -16 -53z"/>
<path d="M1450 2611 c-76 -46 -151 -117 -174 -165 -31 -67 -16 -155 37 -213
16 -18 31 -23 72 -23 119 0 189 79 189 214 1 79 -31 226 -48 226 -6 0 -40 -18
-76 -39z"/>
<path d="M2461 2624 c-115 -31 -166 -89 -165 -186 1 -39 6 -64 18 -76 36 -41
160 -55 222 -26 18 9 50 34 70 56 39 43 100 162 110 216 l7 32 -104 -1 c-57 0
-128 -7 -158 -15z"/>
<path d="M109 2625 c-10 -9 19 -111 47 -170 67 -142 169 -193 298 -149 57 20
69 44 64 125 -9 122 -98 175 -328 194 -41 4 -78 4 -81 0z"/>
<path d="M1024 2230 c-74 -17 -168 -105 -231 -214 l-32 -55 37 -11 c20 -6 73
-16 117 -22 173 -24 292 41 311 169 8 56 1 70 -57 105 -50 30 -99 39 -145 28z"/>
<path d="M2337 2226 c-56 -15 -102 -55 -128 -111 -28 -60 -24 -78 25 -123 73
-67 153 -75 250 -25 33 17 172 147 187 175 8 14 1 21 -38 38 -110 49 -223 66
-296 46z"/>
<path d="M335 2209 c-51 -12 -176 -75 -216 -108 l-30 -26 55 -43 c77 -59 174
-103 244 -109 73 -6 132 23 180 89 l33 47 -22 45 c-45 96 -128 132 -244 105z"/>
<path d="M1640 2201 c-60 -32 -73 -54 -68 -110 7 -68 44 -122 105 -152 40 -20
63 -24 143 -24 90 1 195 18 205 34 8 13 -68 131 -116 181 -25 26 -65 58 -87
69 -52 27 -133 27 -182 2z"/>
<path d="M1258 1953 c-30 -12 -40 -23 -48 -51 -14 -52 -12 -81 9 -128 37 -82
129 -123 294 -131 74 -4 107 -2 107 5 0 31 -52 168 -81 213 -48 75 -106 109
-183 108 -34 0 -78 -7 -98 -16z"/>
<path d="M2331 1838 c-25 -13 -57 -39 -73 -59 -25 -31 -27 -38 -18 -70 26 -93
93 -143 194 -143 34 0 79 6 101 13 58 19 195 83 195 92 0 4 -30 35 -66 68
-122 112 -242 147 -333 99z"/>
<path d="M870 1839 c-83 -34 -160 -140 -205 -288 l-7 -23 133 4 c112 4 143 8
187 27 88 39 130 112 116 202 -6 38 -11 43 -58 65 -54 25 -122 30 -166 13z"/>
<path d="M299 1820 c-71 -38 -145 -147 -177 -261 l-10 -37 47 -6 c96 -12 268
21 318 63 55 46 79 137 54 204 -20 51 -162 74 -232 37z"/>
<path d="M1395 1543 c-45 -23 -65 -44 -87 -87 -39 -76 -6 -184 95 -312 l52
-65 37 42 c93 108 134 259 90 339 -21 40 -104 100 -136 100 -11 -1 -34 -8 -51
-17z"/>
<path d="M950 1454 c-91 -39 -138 -129 -147 -281 -7 -110 -10 -108 114 -68
160 51 233 114 241 209 5 63 -25 131 -64 146 -37 14 -104 11 -144 -6z"/>
<path d="M1827 1453 c-60 -9 -89 -150 -46 -219 36 -59 143 -118 259 -144 30
-6 64 -14 74 -17 18 -5 18 -1 12 68 -24 248 -113 340 -299 312z"/>
<path d="M2350 1446 c-26 -9 -38 -22 -47 -47 -53 -153 59 -266 296 -299 41 -6
76 -8 79 -6 11 11 -32 177 -61 235 -45 91 -90 124 -170 128 -34 1 -78 -3 -97
-11z"/>
<path d="M365 1406 c-40 -17 -108 -93 -138 -153 -32 -64 -61 -153 -52 -161 4
-4 48 -7 98 -6 157 2 253 42 295 124 24 48 29 118 11 152 -25 47 -148 73 -214
44z"/>
<path d="M1126 1004 c-3 -8 -6 -166 -6 -350 l0 -334 -268 0 c-195 0 -271 -3
-280 -12 -15 -15 -16 -161 -2 -189 10 -18 25 -19 389 -19 308 0 381 3 390 14
8 9 10 138 9 457 l-3 444 -111 3 c-95 2 -113 0 -118 -14z"/>
<path d="M1535 1008 c-3 -7 -4 -213 -3 -458 l3 -445 370 -3 c204 -1 380 0 393
3 21 5 22 10 22 104 0 81 -3 100 -16 105 -9 3 -134 6 -280 6 l-264 0 -2 348
-3 347 -108 3 c-80 2 -109 -1 -112 -10z"/>
</g>
</svg>
